<svg width="296" height="70" viewBox="0 0 296 70" fill="none" xmlns="http://www.w3.org/2000/svg">
<path d="M36.4369 62.6315C29.0709 62.6315 22.1419 59.8949 16.9265 54.926C14.8419 52.9398 13.1301 50.6925 11.8247 48.2605L14.7382 40.3115L22.1098 34.6104H28.1675L52.7933 16.4341C53.3982 15.9876 54.2309 16.0163 54.8038 16.5035C60.6915 21.5119 64.0684 28.7017 64.0684 36.2295C64.0684 43.2968 61.1844 49.9365 55.9473 54.926C50.7316 59.8949 43.8027 62.6315 36.4369 62.6315Z" fill="#CED3DF"/>
<path d="M54.8037 16.5035C54.2308 16.0163 53.3982 15.9876 52.7933 16.4341L36.4368 28.5068V62.6315C43.8027 62.6315 50.7316 59.8949 55.9473 54.926C61.184 49.9365 64.0684 43.2968 64.0684 36.2295C64.0684 28.7017 60.6915 21.5119 54.8037 16.5035Z" fill="#AEB5C7"/>
<path d="M10.4243 34.6107C9.53017 34.6107 8.80527 35.3356 8.80527 36.2297C8.80527 40.4837 9.8518 44.5824 11.826 48.2599C16.4998 46.0715 21.8842 39.1905 22.1098 34.6107H10.4243Z" fill="#F3F5FB"/>
<path d="M36.4378 44.3646C36.0586 44.3646 35.6796 44.2319 35.3748 43.967L23.0264 33.2186C19.5143 30.1616 17.5 25.8017 17.5 21.257V8.98748C17.5 8.37829 17.842 7.82057 18.385 7.54437C18.928 7.26816 19.5801 7.32019 20.0725 7.67888L27.2732 12.9252C30.2106 11.9382 33.2889 11.4385 36.4368 11.4385C39.5389 11.4385 42.5747 11.9242 45.4746 12.8833L52.8168 7.66753C53.3109 7.31676 53.9593 7.271 54.4972 7.54883C55.0355 7.82665 55.3737 8.38175 55.3737 8.98748V21.2575C55.3737 25.8018 53.3595 30.1615 49.8481 33.2183L37.5008 43.9667C37.1962 44.2319 36.817 44.3646 36.4378 44.3646Z" fill="#F3F5FB"/>
<path d="M54.4972 7.54881C53.9593 7.27098 53.3109 7.31674 52.8172 7.66751L45.4746 12.8833C42.5747 11.9242 39.5389 11.4385 36.4368 11.4385V44.3645H36.4378C36.8169 44.3645 37.1962 44.2319 37.5008 43.9666L49.8481 33.2183C53.3595 30.1614 55.3737 25.8018 55.3737 21.2575V8.98746C55.3737 8.38174 55.0355 7.82671 54.4972 7.54881Z" fill="#DBE2EB"/>
<path d="M38.0557 40.7878C38.0557 39.8936 37.331 39.1689 36.4368 39.1689C35.5427 39.1689 34.8178 39.8936 34.8178 40.7878V43.4817L35.3749 43.9665C35.6796 44.2318 36.0586 44.3644 36.4378 44.3644C36.817 44.3644 37.1962 44.2318 37.5009 43.9665L38.0557 43.4832V40.7878Z" fill="#5B5555"/>
<path d="M36.4368 39.1689V44.3644H36.4378C36.8169 44.3644 37.1961 44.2318 37.5008 43.9665L38.0557 43.4835V40.7878C38.0557 39.8936 37.331 39.1689 36.4368 39.1689Z" fill="#463F3F"/>
<path d="M42.3732 28.9243C41.695 28.9243 41.0804 28.4868 40.8498 27.8507C40.6203 27.2167 40.824 26.4796 41.3468 26.0532C41.8718 25.6251 42.6241 25.5712 43.2051 25.9172C43.785 26.2621 44.0938 26.9603 43.9611 27.6215C43.8108 28.3692 43.1366 28.9243 42.3732 28.9243Z" fill="#463F3F"/>
<path d="M30.5004 28.9243C29.822 28.9243 29.2073 28.4868 28.9768 27.8508C28.7472 27.2167 28.9512 26.4796 29.4739 26.0532C30.0001 25.6241 30.7494 25.5729 31.3322 25.9172C31.9129 26.2602 32.2207 26.9616 32.0882 27.6215C31.938 28.3691 31.2636 28.9243 30.5004 28.9243Z" fill="#5B5555"/>
<path d="M89.7105 41.4843C89.7105 44.0879 88.7895 46.1385 86.9474 47.6369C85.13 49.1106 82.8948 49.8474 80.2421 49.8474C76.8773 49.8474 73.9911 49.1353 71.5842 47.7106L73.3158 43.6211C75.2316 45.4142 77.3806 46.3106 79.7632 46.3106C81.0158 46.3106 82.0842 45.9668 82.9684 45.279C83.8773 44.5912 84.3316 43.6333 84.3316 42.4053C84.3316 41.5211 84.0369 40.7353 83.4474 40.0474C82.8579 39.3596 82.1211 38.8195 81.2369 38.4264C80.3773 38.0333 79.4316 37.579 78.4 37.0632C77.3684 36.5228 76.4105 35.9825 75.5263 35.4422C74.6668 34.9018 73.9421 34.1404 73.3526 33.1579C72.7632 32.1509 72.4684 30.9965 72.4684 29.6948C72.4684 27.1649 73.3405 25.2492 75.0842 23.9474C76.8526 22.6457 79.1984 21.9948 82.1211 21.9948C83.2263 21.9948 84.5037 22.2158 85.9527 22.6579C87.4017 23.1 88.5069 23.6158 89.2684 24.2053L86.7263 27.3737C85.351 26.1457 83.6563 25.5316 81.6421 25.5316C80.6105 25.5316 79.7142 25.8018 78.9527 26.3422C78.2158 26.8825 77.8474 27.6439 77.8474 28.6264C77.8474 29.486 78.1421 30.2474 78.7316 30.9106C79.3211 31.5492 80.0458 32.0649 80.9053 32.4579C81.7895 32.8509 82.7474 33.3176 83.779 33.8579C84.8105 34.3983 85.7563 34.9509 86.6158 35.5158C87.5 36.0562 88.2369 36.8422 88.8263 37.8737C89.4158 38.9053 89.7105 40.1089 89.7105 41.4843ZM108.155 49.4053H103.697V37.4685C103.697 36.7807 103.66 36.2281 103.586 35.8106C103.513 35.3685 103.292 34.9755 102.923 34.6316C102.555 34.2632 102.039 34.079 101.376 34.079C100.835 34.079 100.135 34.3123 99.2759 34.779C98.4406 35.2211 97.8143 35.6632 97.3969 36.1053V49.4053H93.0127V23.0632L92.5706 21.0737H97.3969V32.8264C99.2143 31.3281 100.983 30.579 102.702 30.579C104.692 30.579 106.092 31.1316 106.902 32.2369C107.737 33.3422 108.155 34.9386 108.155 37.0264V49.4053ZM117.397 49.4053H112.976V33.0843C112.976 33.0597 112.939 32.9 112.866 32.6053C112.817 32.3106 112.755 31.9913 112.682 31.6474C112.608 31.3036 112.571 31.1194 112.571 31.0948H117.397V49.4053ZM117.176 22.4C117.741 22.9649 118.024 23.6404 118.024 24.4264C118.024 25.2123 117.741 25.8878 117.176 26.4527C116.636 26.993 115.973 27.2632 115.187 27.2632C114.401 27.2632 113.725 26.993 113.161 26.4527C112.62 25.8878 112.35 25.2123 112.35 24.4264C112.35 23.6404 112.62 22.9649 113.161 22.4C113.725 21.8351 114.401 21.5527 115.187 21.5527C115.973 21.5527 116.636 21.8351 117.176 22.4ZM132.797 30.7264L132.06 35.1106H131.912C130.831 35.1106 129.886 35.4176 129.076 36.0316C128.289 36.6211 127.516 37.4438 126.755 38.5V49.4053H122.333V36.0316C122.333 33.7965 121.94 32.1509 121.155 31.0948L125.833 30.7264C126.374 31.9544 126.668 33.2439 126.718 34.5948C127.356 33.5141 128.228 32.6053 129.333 31.8685C130.463 31.1071 131.618 30.7264 132.797 30.7264ZM133.27 40.2316C133.27 37.53 134.081 35.2579 135.702 33.4158C137.348 31.5492 139.509 30.6158 142.186 30.6158C144.888 30.6158 147.049 31.5369 148.67 33.379C150.292 35.2211 151.102 37.5053 151.102 40.2316C151.102 42.9579 150.292 45.2422 148.67 47.0843C147.049 48.9264 144.888 49.8474 142.186 49.8474C139.485 49.8474 137.323 48.9264 135.702 47.0843C134.081 45.2422 133.27 42.9579 133.27 40.2316ZM142.186 33.6369C141.155 33.6369 140.307 34.0299 139.644 34.8158C139.006 35.6018 138.588 36.4492 138.391 37.3579C138.22 38.2668 138.134 39.2369 138.134 40.2685C138.134 41.3 138.22 42.2701 138.391 43.179C138.588 44.0879 139.006 44.9353 139.644 45.7211C140.307 46.5069 141.155 46.9 142.186 46.9C142.997 46.9 143.685 46.6912 144.249 46.2737C144.839 45.8563 145.257 45.2912 145.502 44.579C145.772 43.8668 145.957 43.1668 146.055 42.479C146.178 41.7912 146.239 41.0543 146.239 40.2685C146.239 39.4826 146.178 38.7458 146.055 38.0579C145.957 37.3701 145.772 36.6702 145.502 35.9579C145.257 35.2457 144.839 34.6807 144.249 34.2632C143.685 33.8457 142.997 33.6369 142.186 33.6369ZM158.881 49.4053H154.46V33.0843C154.46 33.0597 154.423 32.9 154.349 32.6053C154.3 32.3106 154.239 31.9913 154.165 31.6474C154.091 31.3036 154.055 31.1194 154.055 31.0948H158.881V49.4053ZM158.66 22.4C159.225 22.9649 159.507 23.6404 159.507 24.4264C159.507 25.2123 159.225 25.8878 158.66 26.4527C158.119 26.993 157.456 27.2632 156.67 27.2632C155.884 27.2632 155.209 26.993 154.644 26.4527C154.104 25.8878 153.833 25.2123 153.833 24.4264C153.833 23.6404 154.104 22.9649 154.644 22.4C155.209 21.8351 155.884 21.5527 156.67 21.5527C157.456 21.5527 158.119 21.8351 158.66 22.4ZM191.797 49.4053H185.902L177.318 35.7369V49.4053H172.234V24.6843C172.234 24.6597 172.185 24.4755 172.087 24.1316C172.013 23.7878 171.927 23.4316 171.829 23.0632C171.755 22.6948 171.718 22.486 171.718 22.4369H177.318V34.4843L186.308 22.4369H191.023L182.255 34.2264L191.797 49.4053ZM198.134 49.4053H193.713V33.0843C193.713 33.0597 193.676 32.9 193.602 32.6053C193.553 32.3106 193.491 31.9913 193.418 31.6474C193.344 31.3036 193.307 31.1194 193.307 31.0948H198.134V49.4053ZM197.913 22.4C198.477 22.9649 198.76 23.6404 198.76 24.4264C198.76 25.2123 198.477 25.8878 197.913 26.4527C197.372 26.993 196.709 27.2632 195.923 27.2632C195.137 27.2632 194.462 26.993 193.897 26.4527C193.356 25.8878 193.086 25.2123 193.086 24.4264C193.086 23.6404 193.356 22.9649 193.897 22.4C194.462 21.8351 195.137 21.5527 195.923 21.5527C196.709 21.5527 197.372 21.8351 197.913 22.4ZM212.611 49C210.966 49.5158 209.517 49.7737 208.264 49.7737C206.668 49.7737 205.501 49.4053 204.764 48.6685C204.027 47.9316 203.659 46.7527 203.659 45.1316V34.0053H200.638V31.5737C201.571 31.5492 202.406 31.2176 203.143 30.579C203.88 29.9404 204.432 29.2158 204.801 28.4053C205.169 27.5948 205.464 26.7106 205.685 25.7527H208.89C208.399 27.8404 208.153 29.6211 208.153 31.0948H212.611L211.727 34.0053H208.153V44.1369C208.153 45.7826 208.669 46.6053 209.701 46.6053C210.266 46.6053 211.064 46.4826 212.096 46.2369L212.611 49ZM227.096 43.6948C227.096 45.5859 226.384 47.0964 224.959 48.2264C223.534 49.3563 221.852 49.9211 219.912 49.9211C217.75 49.9211 215.712 49.3932 213.796 48.3369L215.38 45.3158C217.05 46.2984 218.438 46.7895 219.543 46.7895C220.329 46.7895 220.98 46.5932 221.496 46.2C222.036 45.7826 222.306 45.1932 222.306 44.4316C222.306 43.7685 222.024 43.2158 221.459 42.7737C220.919 42.3316 220.255 41.9754 219.47 41.7053C218.684 41.4353 217.885 41.128 217.075 40.7843C216.289 40.4158 215.613 39.8632 215.048 39.1264C214.508 38.3895 214.238 37.4685 214.238 36.3632C214.238 34.5211 214.938 33.1088 216.338 32.1264C217.763 31.1194 219.421 30.6158 221.312 30.6158C223.399 30.6158 225.205 30.9965 226.727 31.7579L225.18 34.8527C224.099 34.0176 222.884 33.6 221.533 33.6C220.845 33.6 220.255 33.772 219.764 34.1158C219.273 34.4351 219.027 34.9141 219.027 35.5527C219.027 36.1667 219.297 36.6702 219.838 37.0632C220.403 37.4563 221.078 37.8 221.864 38.0948C222.675 38.3648 223.473 38.6843 224.259 39.0527C225.045 39.4211 225.708 39.9984 226.248 40.7843C226.813 41.5458 227.096 42.5158 227.096 43.6948ZM248.875 48.7053C248.703 48.7543 248.273 48.8895 247.586 49.1106C246.898 49.3069 246.321 49.4543 245.854 49.5527C245.412 49.651 244.982 49.7 244.565 49.7C243.828 49.7 243.202 49.479 242.686 49.0369C242.17 48.5701 241.839 47.9685 241.691 47.2316C239.947 49.0247 237.933 49.9211 235.649 49.9211C233.635 49.9211 232.21 49.3685 231.375 48.2632C230.565 47.1333 230.16 45.5369 230.16 43.4737V33.0843L229.754 31.0948H234.654V42.7C234.654 45.1563 235.452 46.3843 237.049 46.3843C238.13 46.3843 239.051 46.0527 239.812 45.3895C240.573 44.7264 240.954 43.8668 240.954 42.8106V33.0843C240.954 33.0597 240.918 32.9 240.844 32.6053C240.77 32.3106 240.697 32.0036 240.623 31.6843C240.549 31.3404 240.512 31.1439 240.512 31.0948H245.449V44.5422C245.449 45.8195 245.756 46.4579 246.37 46.4579C246.419 46.4579 246.997 46.3106 248.102 46.0158L248.875 48.7053ZM266.537 49.4053H262.079V37.4685C262.079 36.7807 262.042 36.2281 261.968 35.8106C261.895 35.3685 261.674 34.9755 261.305 34.6316C260.937 34.2632 260.421 34.079 259.758 34.079C259.217 34.079 258.517 34.3123 257.658 34.779C256.823 35.2211 256.196 35.6632 255.779 36.1053V49.4053H251.358V36.2895C251.358 33.8334 250.977 32.1509 250.216 31.2422L254.858 30.6895C255.153 31.3281 255.361 32.1141 255.484 33.0474C257.302 31.4018 259.168 30.579 261.084 30.579C263.074 30.579 264.474 31.1316 265.284 32.2369C266.119 33.3422 266.537 34.9386 266.537 37.0264V49.4053ZM285.948 38.5737C285.948 40.0474 285.322 40.7843 284.069 40.7843H274.417C274.417 42.3563 274.834 43.7685 275.669 45.0211C276.504 46.249 277.671 46.8632 279.169 46.8632C279.93 46.8632 280.717 46.679 281.527 46.3106C282.362 45.9422 283.062 45.4754 283.627 44.9106L285.506 47.8579C284.745 48.4964 283.738 48.9879 282.485 49.3316C281.257 49.651 280.078 49.8106 278.948 49.8106C276.099 49.8106 273.851 48.9632 272.206 47.2685C270.56 45.549 269.738 43.2527 269.738 40.379C269.738 37.6527 270.499 35.3439 272.022 33.4527C273.569 31.5369 275.669 30.579 278.322 30.579C280.729 30.579 282.596 31.3036 283.922 32.7527C285.273 34.2018 285.948 36.1422 285.948 38.5737ZM281.343 37.0632C281.343 36.0562 281.085 35.2334 280.569 34.5948C280.053 33.9316 279.317 33.6 278.359 33.6C277.376 33.6 276.504 34.0544 275.743 34.9632C274.981 35.872 274.576 36.8422 274.527 37.8737H280.717C281.134 37.8737 281.343 37.6037 281.343 37.0632Z" fill="white"/>
</svg>
